<?xml version="1.0" encoding="utf-8"?>
<!-- Generator: Adobe Illustrator 20.1.0, SVG Export Plug-In . SVG Version: 6.00 Build 0)  -->
<svg version="1.1" id="Layer_1" xmlns="http://www.w3.org/2000/svg" xmlns:xlink="http://www.w3.org/1999/xlink" x="0px" y="0px"
	 viewBox="0 0 705 330.5" style="enable-background:new 0 0 705 330.5;" xml:space="preserve">
<style type="text/css">
	.st0{fill:#FFFFFF;}
	.st1{font-family:'Montserrat-Light';}
	.st2{font-size:15px;}
	.st3{fill:#F1F2F2;}
	.st4{fill:none;}
	.st5{font-size:14px;}
</style>
<rect x="0" y="0.7" class="st0" width="705" height="47"/>
<text transform="matrix(1 0 0 1 203.8152 29.2848)" class="st1 st2">Google Photos</text>
<text transform="matrix(1 0 0 1 368.6836 29.2848)" class="st1 st2">Evernote</text>
<text transform="matrix(1 0 0 1 482.5403 29.2848)" class="st1 st2">OneNote</text>
<text transform="matrix(1 0 0 1 602.7576 29.2848)" class="st1 st2">Dropbox</text>
<rect y="46.9" class="st3" width="705" height="47"/>
<text transform="matrix(1 0 0 1 63.8181 74.9074)" class="st1 st2">Sign Up</text>
<rect y="94.4" class="st4" width="705" height="47"/>
<text transform="matrix(1 0 0 1 41.6336 122.6701)" class="st1 st2">OCR Support</text>
<rect y="141.3" class="st3" width="705" height="47"/>
<text transform="matrix(1 0 0 1 54.3493 170.8648)" class="st1 st2">Meta data</text>
<rect y="188.8" class="st0" width="705" height="47"/>
<text transform="matrix(1 0 0 1 60.333 208.2164)"><tspan x="0" y="0" class="st1 st5">Meta data </tspan><tspan x="12.3" y="16.8" class="st1 st5">editing</tspan></text>
<rect x="0" y="236.4" class="st3" width="705" height="47"/>
<text transform="matrix(1 0 0 1 46.7068 265.9649)" class="st1 st2">Photo editing</text>
<rect x="0" y="282.9" class="st0" width="705" height="47"/>
<text transform="matrix(1 0 0 1 31.25 311.5394)" class="st1 st2">Machine Learning</text>
</svg>
