<?xml version="1.0" encoding="utf-8"?>
<!-- Generator: Adobe Illustrator 20.1.0, SVG Export Plug-In . SVG Version: 6.00 Build 0)  -->
<svg version="1.1" xmlns="http://www.w3.org/2000/svg" xmlns:xlink="http://www.w3.org/1999/xlink" x="0px" y="0px"
	 viewBox="0 0 1725 780" style="enable-background:new 0 0 1725 780;" xml:space="preserve">
<style type="text/css">
	.st0{fill:url(#SVGID_1_);}
	.st1{fill:#F9F7E6;}
	.st2{fill:none;stroke:#F9F7E6;stroke-width:24;stroke-miterlimit:10;}
</style>
<g id="Layer_1">
	<linearGradient id="SVGID_1_" gradientUnits="userSpaceOnUse" x1="0.4447" y1="391.5078" x2="1724.4447" y2="391.5078">
		<stop  offset="1" style="stop-color:#F58A8C"/>
		<stop  offset="1" style="stop-color:#F58A8C;stop-opacity:0.1413"/>
		<stop  offset="1" style="stop-color:#F58A8C;stop-opacity:0"/>
	</linearGradient>
	<rect x="0.4" y="-120.5" class="st0" width="1724" height="1024"/>
</g>
<g id="Layer_3">
	<path class="st1" d="M1027.4,222.8H697.3c-27.6,0-50.2,22.6-50.2,50.2v330.1c0,27.6,22.6,50.2,50.2,50.2h330.1
		c27.6,0,50.2-22.6,50.2-50.2V273C1077.6,245.4,1055,222.8,1027.4,222.8z M1018.8,544.2c0,27.6-22.6,50.2-50.2,50.2H756.2
		c-27.6,0-50.2-22.6-50.2-50.2V331.8c0-27.6,22.6-50.2,50.2-50.2h212.4c27.6,0,50.2,22.6,50.2,50.2V544.2z"/>
	<path class="st1" d="M862.4,341.9c-51.7,0-93.6,41.9-93.6,93.6s41.9,93.6,93.6,93.6c51.7,0,93.6-41.9,93.6-93.6
		S914.1,341.9,862.4,341.9z M862.4,498.8c-35,0-63.3-28.3-63.3-63.3s28.3-63.3,63.3-63.3c35,0,63.3,28.3,63.3,63.3
		S897.4,498.8,862.4,498.8z"/>
	<g>
		<path class="st2" d="M728,156.9c5.5-9.5,14.5-9.5,20,0l37.5,65c5.5,9.5,1,17.3-10,17.3h-75c-11,0-15.5-7.8-10-17.3L728,156.9z"/>
	</g>
	<g>
		<path class="st2" d="M978,156.9c5.5-9.5,14.5-9.5,20,0l37.5,65c5.5,9.5,1,17.3-10,17.3h-75c-11,0-15.5-7.8-10-17.3L978,156.9z"/>
	</g>
</g>
</svg>
