<svg xmlns="http://www.w3.org/2000/svg" xmlns:xlink="http://www.w3.org/1999/xlink" viewBox="0 0 1024 1024"><defs><linearGradient id="a" y1="512" x2="1024" y2="512" gradientUnits="userSpaceOnUse"><stop offset="1" stop-color="#f58a8c"/><stop offset="1" stop-color="#f58a8c" stop-opacity="0.99"/><stop offset="1" stop-color="#f58a8c" stop-opacity="0.96"/><stop offset="1" stop-color="#f58a8c" stop-opacity="0.92"/><stop offset="1" stop-color="#f58a8c" stop-opacity="0.85"/><stop offset="1" stop-color="#f58a8c" stop-opacity="0.76"/><stop offset="1" stop-color="#f58a8c" stop-opacity="0.65"/><stop offset="1" stop-color="#f58a8c" stop-opacity="0.51"/><stop offset="1" stop-color="#f58a8c" stop-opacity="0.36"/><stop offset="1" stop-color="#f58a8c" stop-opacity="0.19"/><stop offset="1" stop-color="#f58a8c" stop-opacity="0.01"/><stop offset="1" stop-color="#f58a8c" stop-opacity="0"/></linearGradient></defs><title>copycat-logo</title><rect width="1024" height="1024" style="fill:url(#a)"/><path d="M741.1,277H279.9a70.3,70.3,0,0,0-70.1,70.1V808.4a70.3,70.3,0,0,0,70.1,70.1H741.1a70.3,70.3,0,0,0,70.1-70.1V347.1A70.3,70.3,0,0,0,741.1,277ZM729,726.1a70.3,70.3,0,0,1-70.1,70.1H362.1A70.3,70.3,0,0,1,292,726.1V429.4a70.3,70.3,0,0,1,70.1-70.1H658.9A70.3,70.3,0,0,1,729,429.4Z" style="fill:#f9f7e6"/><path d="M510.5,447A130.8,130.8,0,1,0,641.3,577.8,130.7,130.7,0,0,0,510.5,447Zm0,219.2a88.4,88.4,0,1,1,88.4-88.4A88.4,88.4,0,0,1,510.5,666.2Z" style="fill:#f9f7e6"/><path d="M326.6,178.1c5.5-9.5,14.5-9.5,20,0L407,282.7c5.5,9.5,1,17.3-10,17.3H276.3c-11,0-15.5-7.8-10-17.3Z" style="fill:none;stroke:#f9f7e6;stroke-miterlimit:10;stroke-width:24px"/><path d="M676,178.1c5.5-9.5,14.5-9.5,20,0l60.4,104.6c5.5,9.5,1,17.3-10,17.3H625.6c-11,0-15.5-7.8-10-17.3Z" style="fill:none;stroke:#f9f7e6;stroke-miterlimit:10;stroke-width:24px"/></svg>