<?xml version="1.0" encoding="utf-8"?>
<!-- Generator: Adobe Illustrator 20.1.0, SVG Export Plug-In . SVG Version: 6.00 Build 0)  -->
<svg version="1.1" id="Layer_1" xmlns="http://www.w3.org/2000/svg" xmlns:xlink="http://www.w3.org/1999/xlink" x="0px" y="0px"
	 viewBox="0 0 300 250" style="enable-background:new 0 0 300 250;" xml:space="preserve">
<style type="text/css">
	.st0{fill:#28377A;}
	.st1{fill:#FFFFFF;}
</style>
<rect x="-0.5" y="-25" class="st0" width="302.5" height="302.5"/>
<g>
	<path class="st1" d="M38,77v28.5h38V77h7.2v63H76v-27.9H38V140h-7.2V77H38z"/>
	<path class="st1" d="M120.5,83.8c-8.1,0-13.4,3.2-13.4,8.6c0,16.4,35.5,7.8,35.4,30.7c0,10.4-9.3,17.2-22.8,17.2
		c-9.2,0-18.2-4-24.1-9.6l3.2-6.2c5.9,5.6,13.9,8.8,21,8.8c9.1,0,14.8-3.7,14.8-9.8c0.1-16.8-35.4-7.9-35.4-30.5
		c0-9.9,8.7-16.2,21.8-16.2c7.3,0,14.8,2.3,20,5.9l-3.1,6.4C132.2,85.3,125.6,83.8,120.5,83.8z"/>
	<path class="st1" d="M215.1,108.5c0,17.9-14.1,31.5-32.7,31.5h-25.2V77h25.5C201.1,77,215.1,90.6,215.1,108.5z M207.8,108.6
		c0-14.2-11.2-24.9-25.3-24.9h-18.1v49.7h18.4C196.9,133.3,207.8,122.7,207.8,108.6z"/>
	<path class="st1" d="M253.7,83.4c-14.2,0-25.6,11.1-25.6,25c0,13.9,11.4,25.1,25.6,25.1c6.9,0,13.7-2.9,18.6-7.6l4.4,4.8
		c-6.2,5.8-14.7,9.5-23.4,9.5c-18.2,0-32.6-14-32.6-31.9c0-17.6,14.6-31.6,32.8-31.6c8.6,0,17,3.5,23,9.2l-4.3,5.2
		C267.5,86.4,260.7,83.4,253.7,83.4z"/>
</g>
<g>
	<path class="st1" d="M33.2,151.8v5.1H40v-5.1h1.3V163H40v-5h-6.8v5h-1.3v-11.2H33.2z"/>
	<path class="st1" d="M51.7,159.3h-6.9c0.2,1.7,1.4,2.8,3.1,2.8c1,0,2-0.4,2.6-1.1l0.7,0.7c-0.8,0.9-2,1.4-3.4,1.4
		c-2.5,0-4.2-1.7-4.2-4.3c0-2.5,1.7-4.2,4.2-4.3C50.5,154.5,51.8,156.4,51.7,159.3z M50.6,158.3c-0.1-1.6-1.2-2.7-2.8-2.7
		c-1.6,0-2.8,1.1-2.9,2.7H50.6z"/>
	<path class="st1" d="M59.1,163v-1.3c-0.7,0.9-1.7,1.4-3.1,1.4c-1.7,0-2.9-1.1-2.9-2.5c0-1.5,1.2-2.4,3.2-2.4h2.8v-0.5
		c0-1.2-0.8-2-2.3-2c-0.9,0-1.8,0.4-2.7,1l-0.5-0.9c1.1-0.7,2-1.1,3.4-1.1c2.1,0,3.2,1.1,3.2,2.9l0,5.6H59.1z M59.1,160.1v-1h-2.6
		c-1.4,0-2.1,0.4-2.1,1.4c0,0.9,0.8,1.6,1.9,1.6C57.7,162,58.8,161.3,59.1,160.1z"/>
	<path class="st1" d="M67.4,154.5v1.2c-1.8,0-2.9,1.1-3,2.8v4.5h-1.2v-8.4h1.2v1.9C64.9,155.2,65.9,154.5,67.4,154.5z"/>
	<path class="st1" d="M70.5,152.2c0,0.5-0.4,0.8-0.8,0.8s-0.8-0.4-0.8-0.8c0-0.5,0.4-0.8,0.8-0.8S70.5,151.7,70.5,152.2z
		 M70.3,154.6v8.4H69v-8.4H70.3z"/>
	<path class="st1" d="M81,157.8v5.2h-1.2v-4.9c0-1.5-0.9-2.4-2.4-2.4c-1.7,0-2.7,1.1-2.8,2.8v4.5h-1.2v-8.4h1.2v1.9
		c0.6-1.3,1.7-1.9,3.3-1.9C79.8,154.5,81,155.8,81,157.8z"/>
	<path class="st1" d="M91.2,154.6v7.5c0,2.5-1.7,4-4.2,4c-1.3,0-2.4-0.4-3.5-1.2L84,164c0.8,0.7,1.7,1.1,2.8,1.1c1.8,0,3-1.1,3-2.9
		v-1.3c-0.6,1.1-1.7,1.8-3.1,1.8c-2.3,0-3.8-1.7-3.8-4.1c0-2.4,1.6-4,3.8-4c1.4,0,2.5,0.6,3.1,1.8v-1.7H91.2z M89.9,158.6
		c0-1.8-1.2-3-2.9-3c-1.7,0-2.9,1.3-2.9,3c0,1.7,1.2,3,2.9,3C88.7,161.6,89.9,160.3,89.9,158.6z"/>
	<path class="st1" d="M94.8,162.3c0,0.3-0.1,0.5-0.2,0.7l-0.8,1.1h-0.7l0.5-1.2c-0.2-0.1-0.4-0.4-0.4-0.7c0-0.5,0.3-0.8,0.8-0.8
		C94.5,161.5,94.8,161.8,94.8,162.3z"/>
	<path class="st1" d="M104.9,153c-1.4,0-2.4,0.6-2.4,1.5c0,2.9,6.3,1.4,6.3,5.5c0,1.9-1.6,3.1-4,3.1c-1.6,0-3.2-0.7-4.3-1.7l0.6-1.1
		c1,1,2.5,1.6,3.7,1.6c1.6,0,2.6-0.7,2.6-1.7c0-3-6.3-1.4-6.3-5.4c0-1.8,1.6-2.9,3.9-2.9c1.3,0,2.6,0.4,3.6,1l-0.5,1.1
		C107,153.3,105.8,153,104.9,153z"/>
	<path class="st1" d="M119.9,158.8c0,2.5-1.6,4.2-4,4.2c-1.5,0-2.7-0.7-3.3-1.9v4.9h-1.2v-11.5h1.2v1.8c0.6-1.2,1.8-1.9,3.2-1.9
		C118.3,154.5,119.9,156.3,119.9,158.8z M118.7,158.8c0-1.8-1.2-3.2-3-3.2c-1.8,0-3,1.3-3,3.2c0,1.9,1.2,3.2,3,3.2
		C117.4,161.9,118.7,160.6,118.7,158.8z"/>
	<path class="st1" d="M129.4,159.3h-6.9c0.2,1.7,1.4,2.8,3.1,2.8c1,0,2-0.4,2.6-1.1l0.7,0.7c-0.8,0.9-2,1.4-3.4,1.4
		c-2.5,0-4.2-1.7-4.2-4.3c0-2.5,1.7-4.2,4.2-4.3C128.2,154.5,129.5,156.4,129.4,159.3z M128.3,158.3c-0.1-1.6-1.2-2.7-2.8-2.7
		c-1.6,0-2.8,1.1-2.9,2.7H128.3z"/>
	<path class="st1" d="M138.8,159.3h-6.9c0.2,1.7,1.4,2.8,3.1,2.8c1,0,2-0.4,2.6-1.1l0.7,0.7c-0.8,0.9-2,1.4-3.4,1.4
		c-2.5,0-4.2-1.7-4.2-4.3c0-2.5,1.7-4.2,4.2-4.3C137.6,154.5,138.9,156.4,138.8,159.3z M137.7,158.3c-0.1-1.6-1.2-2.7-2.8-2.7
		c-1.6,0-2.8,1.1-2.9,2.7H137.7z"/>
	<path class="st1" d="M144.3,155.7c-1.7,0-3,1.3-3,3.1c0,1.9,1.2,3.2,3,3.2c1.1,0,2-0.4,2.6-1.1l0.7,0.7c-0.8,0.9-1.9,1.5-3.4,1.5
		c-2.4,0-4.2-1.7-4.2-4.3c0-2.5,1.7-4.3,4.2-4.3c1.4,0,2.5,0.5,3.2,1.2l-0.7,0.9C146.2,156,145.3,155.7,144.3,155.7z"/>
	<path class="st1" d="M157.7,157.8v5.2h-1.2v-4.9c0-1.5-0.9-2.4-2.4-2.4c-1.8,0-2.8,1.3-2.8,3.1v4.1H150v-11.9h1.2v5.3
		c0.6-1.3,1.7-1.9,3.3-1.9C156.5,154.5,157.7,155.8,157.7,157.8z"/>
	<path class="st1" d="M173,163.2l-1.9-1.9c-1,1.1-2.2,1.7-3.5,1.7c-1.9,0-3.3-1.3-3.3-3.1c0-1.6,1.2-2.5,2.5-3.2
		c-0.8-1-1.2-1.9-1.2-2.7c0-1.4,1.1-2.4,2.7-2.4c1.6,0,2.6,0.9,2.6,2.2c0,1.5-1.4,2.3-2.8,3.1c0.7,0.8,1.6,1.7,2.8,2.8
		c0.4-0.6,0.8-1.3,1.1-2.2l0.8,0.6c-0.4,0.8-0.8,1.6-1.3,2.3l1.9,1.9L173,163.2z M170.4,160.6c-1.2-1.2-2.3-2.3-3-3.2
		c-1.1,0.6-2,1.3-2,2.4c0,1.3,1,2.2,2.3,2.2C168.6,162.1,169.6,161.6,170.4,160.6z M167.7,156.4c1.2-0.6,2.3-1.2,2.3-2.4
		c0-0.8-0.6-1.4-1.6-1.4c-1,0-1.7,0.7-1.7,1.6C166.7,154.8,167,155.5,167.7,156.4z"/>
	<path class="st1" d="M190.1,157.4c0,3.2-2.5,5.6-5.8,5.6h-4.5v-11.2h4.5C187.6,151.8,190.1,154.2,190.1,157.4z M188.8,157.4
		c0-2.5-2-4.4-4.5-4.4h-3.2v8.8h3.3C186.9,161.8,188.8,159.9,188.8,157.4z"/>
	<path class="st1" d="M199.5,159.3h-6.9c0.2,1.7,1.4,2.8,3.1,2.8c1,0,2-0.4,2.6-1.1l0.7,0.7c-0.8,0.9-2,1.4-3.4,1.4
		c-2.5,0-4.2-1.7-4.2-4.3c0-2.5,1.7-4.2,4.2-4.3C198.3,154.5,199.7,156.4,199.5,159.3z M198.4,158.3c-0.1-1.6-1.2-2.7-2.8-2.7
		c-1.6,0-2.8,1.1-2.9,2.7H198.4z"/>
	<path class="st1" d="M206.9,163v-1.3c-0.7,0.9-1.7,1.4-3.1,1.4c-1.7,0-2.9-1.1-2.9-2.5c0-1.5,1.2-2.4,3.2-2.4h2.8v-0.5
		c0-1.2-0.8-2-2.3-2c-0.9,0-1.8,0.4-2.7,1l-0.5-0.9c1.1-0.7,2-1.1,3.4-1.1c2.1,0,3.2,1.1,3.2,2.9l0,5.6H206.9z M206.9,160.1v-1h-2.6
		c-1.4,0-2.1,0.4-2.1,1.4c0,0.9,0.8,1.6,1.9,1.6C205.5,162,206.6,161.3,206.9,160.1z"/>
	<path class="st1" d="M212.4,153.7v1.1h2.4v1h-2.4v7.2h-1.2v-7.2h-1.1v-1h1.1v-0.9c0-1.8,1.3-2.8,2.7-2.8c0.6,0,1.3,0.2,1.8,0.6
		l-0.5,1c-0.4-0.3-0.8-0.4-1.3-0.4C213.1,152.2,212.4,152.7,212.4,153.7z"/>
	<path class="st1" d="M225.5,152.9c-2.5,0-4.6,2-4.6,4.5c0,2.5,2,4.5,4.6,4.5c1.2,0,2.4-0.5,3.3-1.3l0.8,0.8c-1.1,1-2.6,1.7-4.2,1.7
		c-3.2,0-5.8-2.5-5.8-5.7c0-3.1,2.6-5.6,5.8-5.6c1.5,0,3,0.6,4.1,1.6l-0.8,0.9C227.9,153.5,226.7,152.9,225.5,152.9z"/>
	<path class="st1" d="M238.7,159.3h-6.9c0.2,1.7,1.4,2.8,3.1,2.8c1,0,2-0.4,2.6-1.1l0.7,0.7c-0.8,0.9-2,1.4-3.4,1.4
		c-2.5,0-4.2-1.7-4.2-4.3c0-2.5,1.7-4.2,4.2-4.3C237.5,154.5,238.8,156.4,238.7,159.3z M237.6,158.3c-0.1-1.6-1.2-2.7-2.8-2.7
		c-1.6,0-2.8,1.1-2.9,2.7H237.6z"/>
	<path class="st1" d="M248.5,157.8v5.2h-1.2v-4.9c0-1.5-0.9-2.4-2.4-2.4c-1.7,0-2.7,1.1-2.8,2.8v4.5h-1.2v-8.4h1.2v1.9
		c0.6-1.3,1.7-1.9,3.3-1.9C247.3,154.5,248.5,155.8,248.5,157.8z"/>
	<path class="st1" d="M255.7,162.4c-0.6,0.4-1.2,0.6-1.9,0.6c-1.2,0-2.1-0.7-2.1-2.4v-4.9h-1.2v-1h1.2v-2.2h1.2v2.2h2.7v1h-2.7v4.6
		c0,1,0.4,1.4,1.1,1.4c0.4,0,0.9-0.2,1.3-0.4L255.7,162.4z"/>
	<path class="st1" d="M264.7,159.3h-6.9c0.2,1.7,1.4,2.8,3.1,2.8c1,0,2-0.4,2.6-1.1l0.7,0.7c-0.8,0.9-2,1.4-3.4,1.4
		c-2.5,0-4.2-1.7-4.2-4.3c0-2.5,1.7-4.2,4.2-4.3C263.5,154.5,264.8,156.4,264.7,159.3z M263.6,158.3c-0.1-1.6-1.2-2.7-2.8-2.7
		c-1.6,0-2.8,1.1-2.9,2.7H263.6z"/>
	<path class="st1" d="M271.1,154.5v1.2c-1.8,0-2.9,1.1-3,2.8v4.5h-1.2v-8.4h1.2v1.9C268.6,155.2,269.7,154.5,271.1,154.5z"/>
</g>
<g>
</g>
<g>
</g>
<g>
</g>
<g>
</g>
<g>
</g>
<g>
</g>
</svg>
