<svg xmlns="http://www.w3.org/2000/svg" viewBox="0 0 302.5 302.5"><title>hsdc-logo</title><rect width="302.5" height="302.5" style="fill:#28377a"/><path d="M38,102v28.5H76V102h7.2v63H76V137.1H38V165H30.8V102Z" transform="translate(0.5)" style="fill:#fff"/><path d="M120.5,108.8c-8.1,0-13.4,3.2-13.4,8.6,0,16.4,35.5,7.8,35.4,30.7,0,10.4-9.3,17.2-22.8,17.2a36,36,0,0,1-24.1-9.6l3.2-6.2c5.9,5.6,13.9,8.8,21,8.8,9.1,0,14.8-3.7,14.8-9.8.1-16.8-35.4-7.9-35.4-30.5,0-9.9,8.7-16.2,21.8-16.2a37.3,37.3,0,0,1,20,5.9l-3.1,6.4A33.2,33.2,0,0,0,120.5,108.8Z" transform="translate(0.5)" style="fill:#fff"/><path d="M215.1,133.5c0,17.9-14.1,31.5-32.7,31.5H157.3V102h25.5C201.1,102,215.1,115.6,215.1,133.5Zm-7.3.1c0-14.2-11.2-24.9-25.3-24.9H164.5v49.7h18.4C196.9,158.3,207.8,147.7,207.8,133.6Z" transform="translate(0.5)" style="fill:#fff"/><path d="M253.7,108.4c-14.2,0-25.6,11.1-25.6,25a25.4,25.4,0,0,0,25.6,25.1,27.5,27.5,0,0,0,18.6-7.6l4.4,4.8a34.6,34.6,0,0,1-23.4,9.5c-18.2,0-32.6-14-32.6-31.9s14.6-31.6,32.8-31.6a34.1,34.1,0,0,1,23,9.2l-4.3,5.2A26.8,26.8,0,0,0,253.7,108.4Z" transform="translate(0.5)" style="fill:#fff"/><path d="M33.2,176.8v5.1H40v-5.1h1.3V188H40v-5H33.2v5H31.9V176.8Z" transform="translate(0.5)" style="fill:#fff"/><path d="M51.7,184.3H44.8a3,3,0,0,0,3.1,2.8,3.5,3.5,0,0,0,2.6-1.1l.7.7a4.5,4.5,0,0,1-3.4,1.4,4.3,4.3,0,0,1,0-8.5C50.5,179.5,51.8,181.4,51.7,184.3Zm-1.1-1a2.7,2.7,0,0,0-2.8-2.7,2.8,2.8,0,0,0-2.9,2.7Z" transform="translate(0.5)" style="fill:#fff"/><path d="M59.1,188v-1.3A3.6,3.6,0,0,1,56,188a2.6,2.6,0,0,1-2.9-2.5c0-1.5,1.2-2.4,3.2-2.4h2.8v-.5c0-1.2-.8-2-2.3-2a4.6,4.6,0,0,0-2.7,1l-.5-.9a5.7,5.7,0,0,1,3.4-1.1c2.1,0,3.2,1.1,3.2,2.9V188Zm0-2.9v-1H56.5c-1.4,0-2.1.4-2.1,1.4s.8,1.6,1.9,1.6A2.7,2.7,0,0,0,59.1,185.1Z" transform="translate(0.5)" style="fill:#fff"/><path d="M67.4,179.5v1.2a2.8,2.8,0,0,0-3,2.8V188H63.1v-8.4h1.2v1.9A3.1,3.1,0,0,1,67.4,179.5Z" transform="translate(0.5)" style="fill:#fff"/><path d="M70.5,177.2a.8.8,0,1,1-1.6,0,.8.8,0,1,1,1.6,0Zm-.2,2.4V188H69v-8.4Z" transform="translate(0.5)" style="fill:#fff"/><path d="M81,182.8V188H79.8v-4.9a2.2,2.2,0,0,0-2.4-2.4,2.8,2.8,0,0,0-2.8,2.8V188H73.3v-8.4h1.2v1.9a3.3,3.3,0,0,1,3.3-1.9A3,3,0,0,1,81,182.8Z" transform="translate(0.5)" style="fill:#fff"/><path d="M91.2,179.6v7.5c0,2.5-1.7,4-4.2,4a5.6,5.6,0,0,1-3.5-1.2l.6-.9a4.3,4.3,0,0,0,2.8,1.1,2.8,2.8,0,0,0,3-2.9v-1.3a3.3,3.3,0,0,1-3.1,1.8,4.1,4.1,0,0,1,0-8.1,3.3,3.3,0,0,1,3.1,1.8v-1.7Zm-1.2,4a2.9,2.9,0,1,0-2.9,3A2.8,2.8,0,0,0,89.9,183.6Z" transform="translate(0.5)" style="fill:#fff"/><path d="M94.8,187.3a1.1,1.1,0,0,1-.2.7l-.8,1.1h-.7l.5-1.2a.7.7,0,0,1-.4-.7.8.8,0,1,1,1.5,0Z" transform="translate(0.5)" style="fill:#fff"/><path d="M104.9,178c-1.4,0-2.4.6-2.4,1.5,0,2.9,6.3,1.4,6.3,5.5,0,1.9-1.6,3.1-4,3.1a6.4,6.4,0,0,1-4.3-1.7l.6-1.1a5.6,5.6,0,0,0,3.7,1.6c1.6,0,2.6-.7,2.6-1.7,0-3-6.3-1.4-6.3-5.4,0-1.8,1.6-2.9,3.9-2.9a6.6,6.6,0,0,1,3.6,1l-.5,1.1A5.9,5.9,0,0,0,104.9,178Z" transform="translate(0.5)" style="fill:#fff"/><path d="M119.9,183.8a3.9,3.9,0,0,1-4,4.2,3.5,3.5,0,0,1-3.3-1.9v4.9h-1.2V179.6h1.2v1.8a3.5,3.5,0,0,1,3.2-1.9A4,4,0,0,1,119.9,183.8Zm-1.3,0a3,3,0,1,0-3,3.2A3,3,0,0,0,118.7,183.8Z" transform="translate(0.5)" style="fill:#fff"/><path d="M129.4,184.3h-6.9a3,3,0,0,0,3.1,2.8,3.5,3.5,0,0,0,2.6-1.1l.7.7a4.5,4.5,0,0,1-3.4,1.4,4.3,4.3,0,0,1,0-8.5C128.2,179.5,129.5,181.4,129.4,184.3Zm-1.1-1a2.7,2.7,0,0,0-2.8-2.7,2.8,2.8,0,0,0-2.9,2.7Z" transform="translate(0.5)" style="fill:#fff"/><path d="M138.8,184.3h-6.9A3,3,0,0,0,135,187a3.5,3.5,0,0,0,2.6-1.1l.7.7a4.5,4.5,0,0,1-3.4,1.4,4.3,4.3,0,0,1,0-8.5C137.6,179.5,138.9,181.4,138.8,184.3Zm-1.1-1a2.7,2.7,0,0,0-2.8-2.7,2.8,2.8,0,0,0-2.9,2.7Z" transform="translate(0.5)" style="fill:#fff"/><path d="M144.3,180.7a3.1,3.1,0,0,0,0,6.3,3.3,3.3,0,0,0,2.6-1.1l.7.7a4.2,4.2,0,0,1-3.4,1.5,4.3,4.3,0,0,1,0-8.5,4.4,4.4,0,0,1,3.2,1.2l-.7.9A3.5,3.5,0,0,0,144.3,180.7Z" transform="translate(0.5)" style="fill:#fff"/><path d="M157.7,182.8V188h-1.2v-4.9a2.2,2.2,0,0,0-2.4-2.4,2.8,2.8,0,0,0-2.8,3.1V188H150V176.1h1.2v5.3a3.3,3.3,0,0,1,3.3-1.9A3,3,0,0,1,157.7,182.8Z" transform="translate(0.5)" style="fill:#fff"/><path d="M173,188.2l-1.9-1.9a4.8,4.8,0,0,1-3.5,1.7,3.1,3.1,0,0,1-3.3-3.1c0-1.6,1.2-2.5,2.5-3.2a4.5,4.5,0,0,1-1.2-2.7,2.5,2.5,0,0,1,2.7-2.4A2.3,2.3,0,0,1,171,179c0,1.5-1.4,2.3-2.8,3.1l2.8,2.8a11.5,11.5,0,0,0,1.1-2.2l.8.6a12,12,0,0,1-1.3,2.3l1.9,1.9Zm-2.6-2.5-3-3.2c-1.1.6-2,1.3-2,2.4a2.2,2.2,0,0,0,2.3,2.2A3.7,3.7,0,0,0,170.4,185.6Zm-2.7-4.3c1.2-.6,2.3-1.2,2.3-2.4a1.4,1.4,0,0,0-1.6-1.4,1.6,1.6,0,0,0-1.7,1.6A3.9,3.9,0,0,0,167.7,181.4Z" transform="translate(0.5)" style="fill:#fff"/><path d="M190.1,182.4a5.6,5.6,0,0,1-5.8,5.6h-4.5V176.8h4.5A5.6,5.6,0,0,1,190.1,182.4Zm-1.3,0a4.4,4.4,0,0,0-4.5-4.4h-3.2v8.8h3.3A4.4,4.4,0,0,0,188.8,182.4Z" transform="translate(0.5)" style="fill:#fff"/><path d="M199.5,184.3h-6.9a3,3,0,0,0,3.1,2.8,3.5,3.5,0,0,0,2.6-1.1l.7.7a4.5,4.5,0,0,1-3.4,1.4,4.3,4.3,0,0,1,0-8.5C198.3,179.5,199.7,181.4,199.5,184.3Zm-1.1-1a2.7,2.7,0,0,0-2.8-2.7,2.8,2.8,0,0,0-2.9,2.7Z" transform="translate(0.5)" style="fill:#fff"/><path d="M206.9,188v-1.3a3.6,3.6,0,0,1-3.1,1.4,2.6,2.6,0,0,1-2.9-2.5c0-1.5,1.2-2.4,3.2-2.4h2.8v-.5c0-1.2-.8-2-2.3-2a4.6,4.6,0,0,0-2.7,1l-.5-.9a5.7,5.7,0,0,1,3.4-1.1c2.1,0,3.2,1.1,3.2,2.9V188Zm0-2.9v-1h-2.6c-1.4,0-2.1.4-2.1,1.4s.8,1.6,1.9,1.6A2.7,2.7,0,0,0,206.9,185.1Z" transform="translate(0.5)" style="fill:#fff"/><path d="M212.4,178.7v1.1h2.4v1h-2.4V188h-1.2v-7.2h-1.1v-1h1.1v-.9a2.6,2.6,0,0,1,2.7-2.8,3.1,3.1,0,0,1,1.8.6l-.5,1a2.3,2.3,0,0,0-1.3-.4A1.4,1.4,0,0,0,212.4,178.7Z" transform="translate(0.5)" style="fill:#fff"/><path d="M225.5,177.9a4.5,4.5,0,1,0,0,8.9,4.9,4.9,0,0,0,3.3-1.3l.8.8a6.2,6.2,0,0,1-4.2,1.7,5.6,5.6,0,1,1,0-11.3,6.1,6.1,0,0,1,4.1,1.6l-.8.9A4.8,4.8,0,0,0,225.5,177.9Z" transform="translate(0.5)" style="fill:#fff"/><path d="M238.7,184.3h-6.9a3,3,0,0,0,3.1,2.8,3.5,3.5,0,0,0,2.6-1.1l.7.7a4.5,4.5,0,0,1-3.4,1.4,4.3,4.3,0,0,1,0-8.5C237.5,179.5,238.8,181.4,238.7,184.3Zm-1.1-1a2.7,2.7,0,0,0-2.8-2.7,2.8,2.8,0,0,0-2.9,2.7Z" transform="translate(0.5)" style="fill:#fff"/><path d="M248.5,182.8V188h-1.2v-4.9a2.2,2.2,0,0,0-2.4-2.4,2.8,2.8,0,0,0-2.8,2.8V188h-1.2v-8.4h1.2v1.9a3.3,3.3,0,0,1,3.3-1.9A3,3,0,0,1,248.5,182.8Z" transform="translate(0.5)" style="fill:#fff"/><path d="M255.7,187.4a3.4,3.4,0,0,1-1.9.6c-1.2,0-2.1-.7-2.1-2.4v-4.9h-1.2v-1h1.2v-2.2h1.2v2.2h2.7v1h-2.7v4.6c0,1,.4,1.4,1.1,1.4a2.9,2.9,0,0,0,1.3-.4Z" transform="translate(0.5)" style="fill:#fff"/><path d="M264.7,184.3h-6.9a3,3,0,0,0,3.1,2.8,3.5,3.5,0,0,0,2.6-1.1l.7.7a4.5,4.5,0,0,1-3.4,1.4,4.3,4.3,0,0,1,0-8.5C263.5,179.5,264.8,181.4,264.7,184.3Zm-1.1-1a2.7,2.7,0,0,0-2.8-2.7,2.8,2.8,0,0,0-2.9,2.7Z" transform="translate(0.5)" style="fill:#fff"/><path d="M271.1,179.5v1.2a2.8,2.8,0,0,0-3,2.8V188h-1.2v-8.4h1.2v1.9A3.2,3.2,0,0,1,271.1,179.5Z" transform="translate(0.5)" style="fill:#fff"/></svg>