<?xml version="1.0" encoding="utf-8"?>
<!-- Generator: Adobe Illustrator 20.1.0, SVG Export Plug-In . SVG Version: 6.00 Build 0)  -->
<svg version="1.1" id="Layer_1" xmlns="http://www.w3.org/2000/svg" xmlns:xlink="http://www.w3.org/1999/xlink" x="0px" y="0px"
	 viewBox="0 0 300 300" style="enable-background:new 0 0 300 300;" xml:space="preserve">
<style type="text/css">
	.st0{fill:#FFFFFF;}
</style>
<rect x="0" y="-0.1" class="st0" width="300" height="300"/>
<g>
	<path d="M131.1,169.6v-24.1c0-5-0.8-8.6-2.4-10.6c-1.6-2-4.1-3-7.5-3c-3.2,0-5.9,1.4-8.2,4.1c-2.3,2.7-3.4,6.1-3.4,10.2v23.4H106
		v-24.3c0-8.9-3.4-13.4-10.2-13.4c-3.3,0-6,1.4-8.1,4.1c-2.2,2.7-3.2,6.2-3.2,10.6v23h-3.6v-40h3.6v6.6h0.2
		c2.8-5.1,6.9-7.6,12.2-7.6c2.9,0,5.4,0.8,7.5,2.5s3.5,3.9,4.2,6.6c1.3-2.9,3-5.1,5.4-6.7c2.3-1.6,4.9-2.4,7.6-2.4
		c8.8,0,13.1,5.4,13.1,16.3v24.7H131.1z"/>
	<path d="M144.6,167.8v-4.3c1.4,1.2,3,2.1,4.9,2.8c1.9,0.7,3.6,1,5,1c6.3,0,9.4-2.6,9.4-7.7c0-1.8-0.7-3.3-2.1-4.5
		c-1.4-1.3-3.6-2.5-6.7-3.9c-3.8-1.7-6.5-3.4-8.1-5.2c-1.5-1.8-2.3-4-2.3-6.5c0-3.3,1.2-5.9,3.7-7.9c2.5-2,5.6-3,9.2-3
		c3.4,0,6.4,0.7,8.8,2.1v4.1c-3-1.9-6-2.9-9.2-2.9c-2.6,0-4.8,0.7-6.4,2.1c-1.6,1.4-2.4,3.1-2.4,5.3c0,1.9,0.5,3.4,1.5,4.6
		c1,1.2,3.3,2.5,6.7,4.1c4.2,1.9,7,3.6,8.6,5.2s2.3,3.7,2.3,6.4c0,3.2-1.2,5.8-3.6,7.9s-5.7,3.1-9.9,3.1
		C150.4,170.6,147.2,169.7,144.6,167.8z"/>
	<path d="M211.6,169.6h-3.4l-8.7-30.2c-0.2-0.8-0.4-2-0.6-3.4h-0.2c-0.1,0.6-0.3,1.7-0.8,3.3l-9.8,30.2h-3.4l-12.1-40h4l9.3,31.9
		c0.2,0.8,0.4,2,0.5,3.4h0.3c0.1-0.8,0.3-1.9,0.7-3.4l10.2-31.9h2.5l9.1,31.9c0.2,0.8,0.4,1.9,0.5,3.4h0.3c0-0.8,0.2-1.9,0.7-3.4
		l9.5-31.9h3.7L211.6,169.6z"/>
</g>
<g>
</g>
<g>
</g>
<g>
</g>
<g>
</g>
<g>
</g>
<g>
</g>
</svg>
