<?xml version="1.0" encoding="utf-8"?>
<!-- Generator: Adobe Illustrator 20.1.0, SVG Export Plug-In . SVG Version: 6.00 Build 0)  -->
<svg version="1.1" id="Layer_1" xmlns="http://www.w3.org/2000/svg" xmlns:xlink="http://www.w3.org/1999/xlink" x="0px" y="0px"
	 viewBox="0 0 300 125" style="enable-background:new 0 0 300 125;" xml:space="preserve">
<style type="text/css">
	.st0{fill:#FFFFFF;}
</style>
<rect x="0" class="st0" width="300" height="125"/>
<g>
	<path d="M141.5,72.8V62c0-2.3-0.4-3.8-1.1-4.8s-1.8-1.4-3.4-1.4c-1.4,0-2.6,0.6-3.7,1.8s-1.5,2.7-1.5,4.6v10.5h-1.6v-11
		c0-4-1.5-6-4.6-6c-1.5,0-2.7,0.6-3.7,1.8s-1.5,2.8-1.5,4.8v10.4h-1.6v-18h1.6v3h0.1c1.3-2.3,3.1-3.4,5.5-3.4c1.3,0,2.4,0.4,3.4,1.1
		s1.6,1.7,1.9,3c0.6-1.3,1.4-2.3,2.4-3s2.2-1.1,3.4-1.1c3.9,0,5.9,2.4,5.9,7.3v11.1H141.5z"/>
	<path d="M147.5,72v-2c0.6,0.5,1.3,0.9,2.2,1.2s1.6,0.5,2.2,0.5c2.8,0,4.2-1.2,4.2-3.5c0-0.8-0.3-1.5-0.9-2s-1.6-1.1-3-1.7
		c-1.7-0.8-2.9-1.5-3.6-2.3s-1-1.8-1-2.9c0-1.5,0.6-2.6,1.7-3.6s2.5-1.4,4.1-1.4c1.5,0,2.9,0.3,4,0.9v1.8c-1.3-0.9-2.7-1.3-4.1-1.3
		c-1.2,0-2.1,0.3-2.9,0.9c-0.7,0.6-1.1,1.4-1.1,2.4c0,0.9,0.2,1.5,0.7,2.1s1.5,1.1,3,1.8c1.9,0.8,3.2,1.6,3.9,2.3s1.1,1.7,1.1,2.9
		c0,1.4-0.5,2.6-1.6,3.5s-2.6,1.4-4.4,1.4C150.2,73.3,148.7,72.8,147.5,72z"/>
	<path d="M177.7,72.8h-1.5l-3.9-13.6c-0.1-0.4-0.2-0.9-0.3-1.5h-0.1c0,0.3-0.1,0.8-0.4,1.5l-4.4,13.6h-1.5l-5.4-18h1.8l4.2,14.4
		c0.1,0.4,0.2,0.9,0.2,1.5h0.1c0-0.3,0.1-0.8,0.3-1.5l4.6-14.4h1.1l4.1,14.4c0.1,0.3,0.2,0.8,0.2,1.5h0.1c0-0.3,0.1-0.8,0.3-1.5
		l4.3-14.4h1.7L177.7,72.8z"/>
</g>
<g>
</g>
<g>
</g>
<g>
</g>
<g>
</g>
<g>
</g>
<g>
</g>
</svg>
