<svg id="Layer_1" data-name="Layer 1" xmlns="http://www.w3.org/2000/svg" viewBox="0 0 1016.56 658.47"><defs><style>.cls-1,.cls-2{fill:#fff;}.cls-2,.cls-4,.cls-5,.cls-6{stroke:#000;stroke-miterlimit:10;}.cls-2,.cls-5,.cls-6{stroke-width:2px;}.cls-3{isolation:isolate;font-size:26px;font-family:Montserrat-Regular, Montserrat;}.cls-4,.cls-5{fill:none;}.cls-4{stroke-width:3px;}.cls-6{fill:#a7a9ac;}</style></defs><title>wireframes</title><rect class="cls-1" width="1016.56" height="658.47"/><rect class="cls-2" x="50.1" y="81.99" width="270" height="495.7"/><rect class="cls-2" x="50.1" y="81.99" width="270" height="27"/><rect class="cls-2" x="50.1" y="108.99" width="270" height="81"/><rect class="cls-2" x="50.1" y="555.19" width="270" height="22.5"/><text class="cls-3" transform="translate(158.35 156.99)">FPO</text><line class="cls-4" x1="70.6" y1="209.49" x2="109.6" y2="209.49"/><line class="cls-5" x1="70.6" y1="226.29" x2="242.6" y2="226.29"/><line class="cls-5" x1="70.6" y1="240.19" x2="242.6" y2="240.19"/><line class="cls-5" x1="70.6" y1="254.19" x2="242.6" y2="254.19"/><line class="cls-4" x1="70.6" y1="281.49" x2="109.6" y2="281.49"/><circle class="cls-4" cx="90.1" cy="319.89" r="16.5"/><circle class="cls-4" cx="145.1" cy="319.89" r="16.5"/><circle class="cls-4" cx="199.1" cy="319.89" r="16.5"/><circle class="cls-4" cx="254.1" cy="319.89" r="16.5"/><circle class="cls-4" cx="90.1" cy="370.89" r="16.5"/><circle class="cls-4" cx="145.1" cy="370.89" r="16.5"/><circle class="cls-4" cx="199.1" cy="370.89" r="16.5"/><circle class="cls-4" cx="254.1" cy="370.89" r="16.5"/><line class="cls-4" x1="71.6" y1="416.49" x2="110.6" y2="416.49"/><rect class="cls-6" x="72.6" y="434.09" width="214.5" height="55.5"/><line class="cls-4" x1="72.6" y1="507.49" x2="111.6" y2="507.49"/><line class="cls-5" x1="71.6" y1="520.29" x2="126.6" y2="520.29"/><line class="cls-5" x1="71.6" y1="534.19" x2="126.6" y2="534.19"/><line class="cls-4" x1="151.1" y1="507.89" x2="190.1" y2="507.89"/><line class="cls-5" x1="150.1" y1="520.69" x2="205.1" y2="520.69"/><line class="cls-5" x1="150.1" y1="534.59" x2="205.1" y2="534.59"/><line class="cls-4" x1="228.1" y1="507.99" x2="267.1" y2="507.99"/><line class="cls-5" x1="227.1" y1="520.79" x2="282.1" y2="520.79"/><line class="cls-5" x1="227.1" y1="534.79" x2="282.1" y2="534.79"/><rect class="cls-2" x="367.1" y="80.99" width="270" height="495.7"/><rect class="cls-2" x="367.1" y="80.99" width="270" height="27"/><rect class="cls-2" x="367.1" y="107.99" width="270" height="81"/><rect class="cls-2" x="367.1" y="554.19" width="270" height="22.5"/><text class="cls-3" transform="translate(475.35 155.99)">FPO</text><rect class="cls-2" x="684.1" y="79.99" width="270" height="495.7"/><rect class="cls-2" x="684.1" y="79.99" width="270" height="27"/><rect class="cls-2" x="684.1" y="106.99" width="270" height="81"/><rect class="cls-2" x="684.1" y="553.19" width="270" height="22.5"/><text class="cls-3" transform="translate(792.35 154.99)">FPO</text><line class="cls-4" x1="390.6" y1="210.89" x2="429.6" y2="210.89"/><line class="cls-5" x1="390.6" y1="227.69" x2="562.6" y2="227.69"/><line class="cls-5" x1="390.6" y1="241.59" x2="562.6" y2="241.59"/><line class="cls-4" x1="390.6" y1="274.29" x2="429.6" y2="274.29"/><line class="cls-5" x1="390.6" y1="291.09" x2="562.6" y2="291.09"/><line class="cls-5" x1="390.6" y1="305.09" x2="562.6" y2="305.09"/><line class="cls-4" x1="390.6" y1="337.69" x2="429.6" y2="337.69"/><line class="cls-5" x1="390.6" y1="354.49" x2="562.6" y2="354.49"/><line class="cls-5" x1="390.6" y1="368.39" x2="562.6" y2="368.39"/><line class="cls-4" x1="391.6" y1="402.19" x2="430.6" y2="402.19"/><line class="cls-5" x1="391.6" y1="418.89" x2="563.6" y2="418.89"/><rect class="cls-5" x="391.6" y="441.09" width="69.5" height="9.4"/><rect class="cls-5" x="391.6" y="462.59" width="69.5" height="9.4"/><rect class="cls-5" x="472.3" y="462.59" width="69.5" height="9.4"/><rect class="cls-5" x="391.6" y="483.49" width="69.5" height="9.4"/><rect class="cls-5" x="391.6" y="504.69" width="150.2" height="23.6"/><line class="cls-4" x1="800.6" y1="210.89" x2="839.6" y2="210.89"/><line class="cls-5" x1="734.1" y1="223.19" x2="906.1" y2="223.19"/><line class="cls-5" x1="734.1" y1="237.19" x2="906.1" y2="237.19"/><rect class="cls-6" x="684.1" y="259.59" width="270" height="44.5"/><line class="cls-4" x1="719.6" y1="271.89" x2="758.6" y2="271.89"/><line class="cls-5" x1="719.6" y1="282.89" x2="758.6" y2="282.89"/><line class="cls-5" x1="719.6" y1="292.89" x2="758.6" y2="292.89"/><line class="cls-4" x1="798.9" y1="272.39" x2="837.9" y2="272.39"/><line class="cls-5" x1="798.9" y1="283.39" x2="837.9" y2="283.39"/><line class="cls-5" x1="798.9" y1="293.39" x2="837.9" y2="293.39"/><line class="cls-4" x1="878.9" y1="272.39" x2="917.9" y2="272.39"/><line class="cls-5" x1="878.9" y1="283.39" x2="917.9" y2="283.39"/><line class="cls-5" x1="878.9" y1="293.39" x2="917.9" y2="293.39"/><line class="cls-4" x1="708.1" y1="327.89" x2="747.1" y2="327.89"/><line class="cls-5" x1="708.1" y1="339.69" x2="806.9" y2="339.69"/><line class="cls-5" x1="708.1" y1="353.69" x2="806.9" y2="353.69"/><line class="cls-5" x1="826.9" y1="339.49" x2="925.8" y2="339.49"/><line class="cls-5" x1="826.9" y1="353.49" x2="925.8" y2="353.49"/><line class="cls-4" x1="708.6" y1="386.19" x2="747.6" y2="386.19"/><line class="cls-5" x1="708.6" y1="402.89" x2="880.6" y2="402.89"/><rect class="cls-5" x="708.6" y="425.09" width="69.5" height="9.4"/><rect class="cls-5" x="708.6" y="446.59" width="69.5" height="9.4"/><rect class="cls-5" x="789.3" y="446.59" width="69.5" height="9.4"/><rect class="cls-5" x="708.6" y="467.49" width="69.5" height="9.4"/><rect class="cls-5" x="708.6" y="488.69" width="150.2" height="23.6"/></svg>